<mxfile host="app.diagrams.net" modified="2023-12-17T13:09:58.243Z" agent="Mozilla/5.0 (X11; Linux aarch64; rv:102.0) Gecko/20100101 Firefox/102.0" etag="4VGymhX2cv0AhBthcr97" version="22.1.11" type="github" pages="4">
  <diagram id="QVXukRcYZEAoWH2xmHe6" name="Tela de login">
    <mxGraphModel dx="1235" dy="678" grid="1" gridSize="10" guides="1" tooltips="1" connect="0" arrows="0" fold="0" page="1" pageScale="1" pageWidth="827" pageHeight="1169" background="#ffffff" math="0" shadow="0">
      <root>
        <mxCell id="0" />
        <mxCell id="1" parent="0" />
        <mxCell id="Vdv9BuPVUVirSSIy-L4S-1" value="" style="group;" vertex="1" connectable="0" parent="1">
          <mxGeometry width="360" height="640" as="geometry" />
        </mxCell>
        <mxCell id="Vdv9BuPVUVirSSIy-L4S-2" value="" style="shape=rect;fillColor=#333333;strokeColor=none;" vertex="1" parent="Vdv9BuPVUVirSSIy-L4S-1">
          <mxGeometry width="360" height="640" as="geometry" />
        </mxCell>
        <mxCell id="Vdv9BuPVUVirSSIy-L4S-3" value="" style="strokeWidth=1;shadow=0;dashed=0;align=center;html=1;shape=mxgraph.mockup.containers.browserWindow;rSize=0;strokeColor=#666666;strokeColor2=#008cff;strokeColor3=#c4c4c4;mainText=,;recursiveResize=0;" vertex="1" parent="Vdv9BuPVUVirSSIy-L4S-1">
          <mxGeometry x="10" y="10" width="340" height="620" as="geometry" />
        </mxCell>
        <UserObject label="&lt;font color=&quot;#000000&quot;&gt;Esqueceu a senha? &lt;/font&gt;&lt;u&gt;Clique aqui para redefinir sua senha&lt;/u&gt;&lt;font color=&quot;#000000&quot;&gt;.&lt;/font&gt;" link="data:page/id,Tg6_4VK22YlRRJGs_QcX" id="Vdv9BuPVUVirSSIy-L4S-14">
          <mxCell style="text;html=1;strokeColor=none;fillColor=none;align=center;verticalAlign=middle;whiteSpace=wrap;rounded=0;fontStyle=0;fontColor=#0000FF;" vertex="1" parent="Vdv9BuPVUVirSSIy-L4S-3">
            <mxGeometry x="10" y="485" width="320" height="35" as="geometry" />
          </mxCell>
        </UserObject>
        <mxCell id="Vdv9BuPVUVirSSIy-L4S-4" value="Sign-in" style="strokeWidth=1;shadow=0;dashed=0;align=center;html=1;shape=mxgraph.mockup.containers.anchor;fontSize=17;fontColor=#666666;align=left;whiteSpace=wrap;" vertex="1" parent="Vdv9BuPVUVirSSIy-L4S-3">
          <mxGeometry x="60" y="12" width="110" height="26" as="geometry" />
        </mxCell>
        <mxCell id="Vdv9BuPVUVirSSIy-L4S-5" value="projeto-lumos/sign-in" style="strokeWidth=1;shadow=0;dashed=0;align=center;html=1;shape=mxgraph.mockup.containers.anchor;rSize=0;fontSize=17;fontColor=#666666;align=left;" vertex="1" parent="Vdv9BuPVUVirSSIy-L4S-3">
          <mxGeometry x="130" y="60" width="200" height="26" as="geometry" />
        </mxCell>
        <mxCell id="Vdv9BuPVUVirSSIy-L4S-6" value="" style="ellipse;whiteSpace=wrap;html=1;aspect=fixed;" vertex="1" parent="Vdv9BuPVUVirSSIy-L4S-3">
          <mxGeometry x="107.5" y="121" width="125" height="125" as="geometry" />
        </mxCell>
        <mxCell id="Vdv9BuPVUVirSSIy-L4S-7" value="PROJETO LUMOS" style="text;strokeColor=none;fillColor=none;html=1;fontSize=24;fontStyle=1;verticalAlign=middle;align=center;labelBackgroundColor=#FFFFFF;" vertex="1" parent="Vdv9BuPVUVirSSIy-L4S-3">
          <mxGeometry x="5" y="163.5" width="330" height="40" as="geometry" />
        </mxCell>
        <mxCell id="Vdv9BuPVUVirSSIy-L4S-8" value="E-mail:" style="text;html=1;strokeColor=none;fillColor=none;align=left;verticalAlign=bottom;whiteSpace=wrap;rounded=0;fontStyle=1" vertex="1" parent="Vdv9BuPVUVirSSIy-L4S-3">
          <mxGeometry x="10" y="246" width="320" height="30" as="geometry" />
        </mxCell>
        <mxCell id="Vdv9BuPVUVirSSIy-L4S-9" value="&lt;div style=&quot;font-size: 14px;&quot; align=&quot;left&quot;&gt;exemplo@email.com&lt;/div&gt;" style="rounded=1;whiteSpace=wrap;html=1;align=left;fontColor=#808080;fontSize=14;" vertex="1" parent="Vdv9BuPVUVirSSIy-L4S-3">
          <mxGeometry x="10" y="276" width="320" height="25" as="geometry" />
        </mxCell>
        <mxCell id="Vdv9BuPVUVirSSIy-L4S-10" value="&lt;div style=&quot;font-size: 30px;&quot; align=&quot;left&quot;&gt;&lt;font style=&quot;font-size: 30px;&quot;&gt;&lt;b style=&quot;font-size: 30px;&quot;&gt;********&lt;/b&gt;&lt;/font&gt;&lt;/div&gt;" style="rounded=1;whiteSpace=wrap;html=1;align=left;fontSize=30;verticalAlign=middle;horizontal=1;spacingTop=20;fontColor=#808080;" vertex="1" parent="Vdv9BuPVUVirSSIy-L4S-3">
          <mxGeometry x="10" y="351" width="320" height="24" as="geometry" />
        </mxCell>
        <mxCell id="Vdv9BuPVUVirSSIy-L4S-11" value="Senha:" style="text;html=1;strokeColor=none;fillColor=none;align=left;verticalAlign=bottom;whiteSpace=wrap;rounded=0;fontStyle=1" vertex="1" parent="Vdv9BuPVUVirSSIy-L4S-3">
          <mxGeometry x="10" y="321" width="320" height="30" as="geometry" />
        </mxCell>
        <mxCell id="Vdv9BuPVUVirSSIy-L4S-12" value="" style="whiteSpace=wrap;html=1;aspect=fixed;" vertex="1" parent="Vdv9BuPVUVirSSIy-L4S-3">
          <mxGeometry x="10" y="395" width="20" height="20" as="geometry" />
        </mxCell>
        <mxCell id="Vdv9BuPVUVirSSIy-L4S-13" value="Manter conecxão" style="text;html=1;strokeColor=none;fillColor=none;align=center;verticalAlign=middle;whiteSpace=wrap;rounded=0;" vertex="1" parent="Vdv9BuPVUVirSSIy-L4S-3">
          <mxGeometry x="30" y="395" width="100" height="20" as="geometry" />
        </mxCell>
        <UserObject label="Login" link="data:page/id,yGj1j8o3CC4hvEhsWFOq" id="Vdv9BuPVUVirSSIy-L4S-15">
          <mxCell style="html=1;shadow=0;dashed=0;shape=mxgraph.bootstrap.rrect;rSize=5;strokeColor=none;strokeWidth=1;fillColor=#0085FC;fontColor=#FFFFFF;whiteSpace=wrap;align=center;verticalAlign=middle;spacingLeft=0;fontStyle=0;fontSize=16;spacing=5;" vertex="1" parent="Vdv9BuPVUVirSSIy-L4S-3">
            <mxGeometry x="10" y="445" width="320" height="40" as="geometry" />
          </mxCell>
        </UserObject>
        <mxCell id="xp5IXckP9Dg446H2ewsu-7" value="O e-mail e/ou a senha estão incorretos!" style="html=1;shadow=0;dashed=0;shape=mxgraph.bootstrap.rrect;rSize=5;strokeColor=#F4C5CB;strokeWidth=1;fillColor=#F8D6DA;fontColor=#711623;whiteSpace=wrap;align=left;verticalAlign=middle;spacingLeft=10;" vertex="1" parent="Vdv9BuPVUVirSSIy-L4S-3">
          <mxGeometry x="10" y="555" width="320" height="40" as="geometry" />
        </mxCell>
        <UserObject label="Ainda não tem uma conta? &lt;font color=&quot;#0000FF&quot;&gt;&lt;u&gt;Registre-se aqui&lt;/u&gt;&lt;/font&gt;." link="data:page/id,ULmX6C8u3NB8f6NQlkoH" id="xp5IXckP9Dg446H2ewsu-8">
          <mxCell style="text;strokeColor=none;align=center;fillColor=none;html=1;verticalAlign=middle;whiteSpace=wrap;rounded=0;" vertex="1" parent="Vdv9BuPVUVirSSIy-L4S-1">
            <mxGeometry x="20" y="530" width="320" height="30" as="geometry" />
          </mxCell>
        </UserObject>
      </root>
    </mxGraphModel>
  </diagram>
  <diagram id="ULmX6C8u3NB8f6NQlkoH" name="Tela de cadastro de usuário">
    <mxGraphModel dx="1420" dy="780" grid="1" gridSize="10" guides="1" tooltips="1" connect="0" arrows="0" fold="1" page="1" pageScale="1" pageWidth="827" pageHeight="1169" math="0" shadow="0">
      <root>
        <mxCell id="0" />
        <mxCell id="1" parent="0" />
        <mxCell id="MP8zLyqFTEhVj600t6fu-1" value="" style="group" vertex="1" connectable="0" parent="1">
          <mxGeometry width="360" height="640" as="geometry" />
        </mxCell>
        <mxCell id="UWocLeapKV_h0xcbL4Y1-8" value="" style="shape=rect;fillColor=#333333;strokeColor=none;" vertex="1" parent="MP8zLyqFTEhVj600t6fu-1">
          <mxGeometry width="360" height="640" as="geometry" />
        </mxCell>
        <mxCell id="UWocLeapKV_h0xcbL4Y1-10" value="" style="strokeWidth=1;shadow=0;dashed=0;align=center;html=1;shape=mxgraph.mockup.containers.browserWindow;rSize=0;strokeColor=#666666;strokeColor2=#008cff;strokeColor3=#c4c4c4;mainText=,;recursiveResize=0;" vertex="1" parent="MP8zLyqFTEhVj600t6fu-1">
          <mxGeometry x="10" y="10" width="340" height="620" as="geometry" />
        </mxCell>
        <mxCell id="UWocLeapKV_h0xcbL4Y1-11" value="Sign-up" style="strokeWidth=1;shadow=0;dashed=0;align=center;html=1;shape=mxgraph.mockup.containers.anchor;fontSize=17;fontColor=#666666;align=left;whiteSpace=wrap;" vertex="1" parent="UWocLeapKV_h0xcbL4Y1-10">
          <mxGeometry x="60" y="12" width="110" height="26" as="geometry" />
        </mxCell>
        <mxCell id="UWocLeapKV_h0xcbL4Y1-12" value="projeto-lumos/sign-up" style="strokeWidth=1;shadow=0;dashed=0;align=center;html=1;shape=mxgraph.mockup.containers.anchor;rSize=0;fontSize=17;fontColor=#666666;align=left;" vertex="1" parent="UWocLeapKV_h0xcbL4Y1-10">
          <mxGeometry x="130" y="60" width="190" height="26" as="geometry" />
        </mxCell>
        <mxCell id="7kja0_0EhPX-HCln8B6n-1" value="Novo usuário" style="text;strokeColor=none;fillColor=none;html=1;fontSize=24;fontStyle=1;verticalAlign=middle;align=center;" vertex="1" parent="UWocLeapKV_h0xcbL4Y1-10">
          <mxGeometry x="120" y="120" width="100" height="40" as="geometry" />
        </mxCell>
        <mxCell id="7kja0_0EhPX-HCln8B6n-122" value="Nome:" style="text;strokeColor=none;align=left;fillColor=none;html=1;verticalAlign=top;whiteSpace=wrap;rounded=0;" vertex="1" parent="UWocLeapKV_h0xcbL4Y1-10">
          <mxGeometry x="10" y="180" width="320" height="30" as="geometry" />
        </mxCell>
        <mxCell id="7kja0_0EhPX-HCln8B6n-127" value="E-mail: &lt;font color=&quot;#ff0000&quot;&gt;*&lt;/font&gt;" style="text;strokeColor=none;align=left;fillColor=none;html=1;verticalAlign=top;whiteSpace=wrap;rounded=0;" vertex="1" parent="UWocLeapKV_h0xcbL4Y1-10">
          <mxGeometry x="10" y="260" width="320" height="30" as="geometry" />
        </mxCell>
        <mxCell id="7kja0_0EhPX-HCln8B6n-128" value="&lt;div align=&quot;left&quot;&gt;&amp;nbsp;&lt;font color=&quot;#77767b&quot;&gt;exemplo@email.com&lt;/font&gt;&lt;/div&gt;" style="whiteSpace=wrap;html=1;align=left;" vertex="1" parent="UWocLeapKV_h0xcbL4Y1-10">
          <mxGeometry x="10" y="280" width="320" height="20" as="geometry" />
        </mxCell>
        <mxCell id="7kja0_0EhPX-HCln8B6n-129" value="Campo obrigatório!" style="html=1;shadow=0;dashed=0;shape=mxgraph.bootstrap.rrect;rSize=5;strokeColor=#FFECBC;strokeWidth=1;fillColor=#FFF1CF;fontColor=#856110;whiteSpace=wrap;align=left;verticalAlign=middle;spacingLeft=10;" vertex="1" parent="UWocLeapKV_h0xcbL4Y1-10">
          <mxGeometry x="10" y="230" width="150" height="20" as="geometry" />
        </mxCell>
        <mxCell id="7kja0_0EhPX-HCln8B6n-130" value="Campo obrigatório!" style="html=1;shadow=0;dashed=0;shape=mxgraph.bootstrap.rrect;rSize=5;strokeColor=#FFECBC;strokeWidth=1;fillColor=#FFF1CF;fontColor=#856110;whiteSpace=wrap;align=left;verticalAlign=middle;spacingLeft=10;" vertex="1" parent="UWocLeapKV_h0xcbL4Y1-10">
          <mxGeometry x="10" y="310" width="320" height="20" as="geometry" />
        </mxCell>
        <mxCell id="7kja0_0EhPX-HCln8B6n-131" value="E-mail já cadastrado!" style="html=1;shadow=0;dashed=0;shape=mxgraph.bootstrap.rrect;rSize=5;strokeColor=#F4C5CB;strokeWidth=1;fillColor=#F8D6DA;fontColor=#711623;whiteSpace=wrap;align=left;verticalAlign=middle;spacingLeft=10;" vertex="1" parent="UWocLeapKV_h0xcbL4Y1-10">
          <mxGeometry x="10" y="340" width="320" height="20" as="geometry" />
        </mxCell>
        <mxCell id="7kja0_0EhPX-HCln8B6n-132" value="Senha: &lt;font color=&quot;#FF0000&quot;&gt;*&lt;/font&gt;" style="text;strokeColor=none;align=left;fillColor=none;html=1;verticalAlign=top;whiteSpace=wrap;rounded=0;" vertex="1" parent="UWocLeapKV_h0xcbL4Y1-10">
          <mxGeometry x="10" y="370" width="320" height="30" as="geometry" />
        </mxCell>
        <mxCell id="7kja0_0EhPX-HCln8B6n-133" value="&lt;font style=&quot;font-size: 30px;&quot;&gt;&amp;nbsp;********&lt;/font&gt;" style="whiteSpace=wrap;html=1;align=left;fontStyle=1;fontSize=30;verticalAlign=top;spacing=0;labelPosition=center;verticalLabelPosition=middle;textDirection=ltr;spacingTop=-3;fontColor=#808080;" vertex="1" parent="UWocLeapKV_h0xcbL4Y1-10">
          <mxGeometry x="10" y="390" width="320" height="20" as="geometry" />
        </mxCell>
        <mxCell id="7kja0_0EhPX-HCln8B6n-136" value="Campo obrigatório!" style="html=1;shadow=0;dashed=0;shape=mxgraph.bootstrap.rrect;rSize=5;strokeColor=#FFECBC;strokeWidth=1;fillColor=#FFF1CF;fontColor=#856110;whiteSpace=wrap;align=left;verticalAlign=middle;spacingLeft=10;" vertex="1" parent="UWocLeapKV_h0xcbL4Y1-10">
          <mxGeometry x="10" y="420" width="320" height="20" as="geometry" />
        </mxCell>
        <mxCell id="7kja0_0EhPX-HCln8B6n-134" value="Repetir senha: &lt;font color=&quot;#FF0000&quot;&gt;*&lt;/font&gt;" style="text;strokeColor=none;align=left;fillColor=none;html=1;verticalAlign=top;whiteSpace=wrap;rounded=0;" vertex="1" parent="UWocLeapKV_h0xcbL4Y1-10">
          <mxGeometry x="10" y="440" width="320" height="30" as="geometry" />
        </mxCell>
        <mxCell id="7kja0_0EhPX-HCln8B6n-135" value="&lt;font style=&quot;font-size: 30px;&quot;&gt;&amp;nbsp;********&lt;/font&gt;" style="whiteSpace=wrap;html=1;align=left;fontStyle=1;fontSize=30;verticalAlign=top;spacing=0;labelPosition=center;verticalLabelPosition=middle;textDirection=ltr;spacingTop=-3;fontColor=#808080;" vertex="1" parent="UWocLeapKV_h0xcbL4Y1-10">
          <mxGeometry x="10" y="460" width="320" height="20" as="geometry" />
        </mxCell>
        <mxCell id="7kja0_0EhPX-HCln8B6n-137" value="Campo obrigatório!" style="html=1;shadow=0;dashed=0;shape=mxgraph.bootstrap.rrect;rSize=5;strokeColor=#FFECBC;strokeWidth=1;fillColor=#FFF1CF;fontColor=#856110;whiteSpace=wrap;align=left;verticalAlign=middle;spacingLeft=10;" vertex="1" parent="UWocLeapKV_h0xcbL4Y1-10">
          <mxGeometry x="10" y="490" width="320" height="20" as="geometry" />
        </mxCell>
        <mxCell id="7kja0_0EhPX-HCln8B6n-138" value="As senhas são conferem!" style="html=1;shadow=0;dashed=0;shape=mxgraph.bootstrap.rrect;rSize=5;strokeColor=#F4C5CB;strokeWidth=1;fillColor=#F8D6DA;fontColor=#711623;whiteSpace=wrap;align=left;verticalAlign=middle;spacingLeft=10;" vertex="1" parent="UWocLeapKV_h0xcbL4Y1-10">
          <mxGeometry x="10" y="520" width="320" height="20" as="geometry" />
        </mxCell>
        <mxCell id="7kja0_0EhPX-HCln8B6n-2" value="" style="line;strokeWidth=2;html=1;" vertex="1" parent="MP8zLyqFTEhVj600t6fu-1">
          <mxGeometry x="20" y="170" width="320" height="10" as="geometry" />
        </mxCell>
        <mxCell id="7kja0_0EhPX-HCln8B6n-123" value="&lt;div&gt;&lt;font color=&quot;#808080&quot;&gt;&amp;nbsp;Primeiro nome&lt;/font&gt; &lt;font color=&quot;#FF0000&quot;&gt;*&lt;/font&gt;&lt;br&gt;&lt;/div&gt;" style="whiteSpace=wrap;html=1;align=left;" vertex="1" parent="MP8zLyqFTEhVj600t6fu-1">
          <mxGeometry x="20" y="210" width="150" height="20" as="geometry" />
        </mxCell>
        <mxCell id="7kja0_0EhPX-HCln8B6n-126" value="&lt;font color=&quot;#808080&quot;&gt;&amp;nbsp;Ultimo nome&lt;/font&gt;" style="whiteSpace=wrap;html=1;align=left;verticalAlign=middle;" vertex="1" parent="MP8zLyqFTEhVj600t6fu-1">
          <mxGeometry x="190" y="210" width="150" height="20" as="geometry" />
        </mxCell>
        <mxCell id="7kja0_0EhPX-HCln8B6n-139" value="" style="html=1;shadow=0;dashed=0;shape=mxgraph.bootstrap.rrect;rSize=5;strokeColor=none;html=1;whiteSpace=wrap;fillColor=#ffffff;fontColor=#0085FC;" vertex="1" parent="MP8zLyqFTEhVj600t6fu-1">
          <mxGeometry x="120" y="565" width="120" height="40" as="geometry" />
        </mxCell>
        <mxCell id="7kja0_0EhPX-HCln8B6n-140" value="1" style="strokeColor=#dee2e6;fillColor=inherit;gradientColor=inherit;html=1;shadow=0;dashed=0;shape=mxgraph.bootstrap.leftButton;rSize=5;perimeter=none;whiteSpace=wrap;resizeHeight=1;fillColor=#0085FC;strokeColor=none;fontColor=#ffffff;fontSize=16;" vertex="1" parent="7kja0_0EhPX-HCln8B6n-139">
          <mxGeometry width="40" height="40" relative="1" as="geometry" />
        </mxCell>
        <mxCell id="7kja0_0EhPX-HCln8B6n-141" value="2" style="strokeColor=#dee2e6;fillColor=inherit;gradientColor=inherit;fontColor=inherit;html=1;shadow=0;dashed=0;perimeter=none;whiteSpace=wrap;resizeHeight=1;fontSize=16;" vertex="1" parent="7kja0_0EhPX-HCln8B6n-139">
          <mxGeometry width="40" height="40" relative="1" as="geometry">
            <mxPoint x="40" as="offset" />
          </mxGeometry>
        </mxCell>
        <mxCell id="7kja0_0EhPX-HCln8B6n-142" value="3" style="strokeColor=#dee2e6;fillColor=inherit;gradientColor=inherit;fontColor=inherit;html=1;shadow=0;dashed=0;shape=mxgraph.bootstrap.rightButton;rSize=5;perimeter=none;whiteSpace=wrap;resizeHeight=1;fontSize=16;" vertex="1" parent="7kja0_0EhPX-HCln8B6n-139">
          <mxGeometry x="1" width="40" height="40" relative="1" as="geometry">
            <mxPoint x="-40" as="offset" />
          </mxGeometry>
        </mxCell>
        <mxCell id="7kja0_0EhPX-HCln8B6n-143" value="" style="group" vertex="1" connectable="0" parent="1">
          <mxGeometry x="414" width="360" height="640" as="geometry" />
        </mxCell>
        <mxCell id="7kja0_0EhPX-HCln8B6n-144" value="" style="shape=rect;fillColor=#333333;strokeColor=none;" vertex="1" parent="7kja0_0EhPX-HCln8B6n-143">
          <mxGeometry width="360" height="640" as="geometry" />
        </mxCell>
        <mxCell id="7kja0_0EhPX-HCln8B6n-145" value="" style="strokeWidth=1;shadow=0;dashed=0;align=center;html=1;shape=mxgraph.mockup.containers.browserWindow;rSize=0;strokeColor=#666666;strokeColor2=#008cff;strokeColor3=#c4c4c4;mainText=,;recursiveResize=0;" vertex="1" parent="7kja0_0EhPX-HCln8B6n-143">
          <mxGeometry x="10" y="10" width="340" height="620" as="geometry" />
        </mxCell>
        <mxCell id="7kja0_0EhPX-HCln8B6n-184" value="Bio ou status:" style="rounded=0;whiteSpace=wrap;html=1;labelPosition=center;verticalLabelPosition=top;align=left;verticalAlign=bottom;" vertex="1" parent="7kja0_0EhPX-HCln8B6n-145">
          <mxGeometry x="10" y="450" width="320" height="90" as="geometry" />
        </mxCell>
        <mxCell id="7kja0_0EhPX-HCln8B6n-146" value="Sign-up" style="strokeWidth=1;shadow=0;dashed=0;align=center;html=1;shape=mxgraph.mockup.containers.anchor;fontSize=17;fontColor=#666666;align=left;whiteSpace=wrap;" vertex="1" parent="7kja0_0EhPX-HCln8B6n-145">
          <mxGeometry x="60" y="12" width="110" height="26" as="geometry" />
        </mxCell>
        <mxCell id="7kja0_0EhPX-HCln8B6n-147" value="projeto-lumos/sign-up" style="strokeWidth=1;shadow=0;dashed=0;align=center;html=1;shape=mxgraph.mockup.containers.anchor;rSize=0;fontSize=17;fontColor=#666666;align=left;" vertex="1" parent="7kja0_0EhPX-HCln8B6n-145">
          <mxGeometry x="130" y="60" width="190" height="26" as="geometry" />
        </mxCell>
        <mxCell id="7kja0_0EhPX-HCln8B6n-152" value="Telefone:" style="text;strokeColor=none;align=left;fillColor=none;html=1;verticalAlign=top;whiteSpace=wrap;rounded=0;" vertex="1" parent="7kja0_0EhPX-HCln8B6n-145">
          <mxGeometry x="10" y="120" width="320" height="30" as="geometry" />
        </mxCell>
        <mxCell id="7kja0_0EhPX-HCln8B6n-160" value="+55" style="whiteSpace=wrap;html=1;" vertex="1" parent="7kja0_0EhPX-HCln8B6n-145">
          <mxGeometry x="10" y="140" width="40" height="20" as="geometry" />
        </mxCell>
        <mxCell id="7kja0_0EhPX-HCln8B6n-163" value="Foto de perfil:" style="fillColor=none;strokeColor=none;align=left;fontSize=14;" vertex="1" parent="7kja0_0EhPX-HCln8B6n-145">
          <mxGeometry x="10" y="180" width="150" height="40" as="geometry" />
        </mxCell>
        <mxCell id="7kja0_0EhPX-HCln8B6n-164" value="Choose File" style="fillColor=#FEFEFE;strokeColor=#AAAAAA;fontSize=14;gradientColor=#F0F0F0;" vertex="1" parent="7kja0_0EhPX-HCln8B6n-145">
          <mxGeometry x="10" y="220" width="90" height="30" as="geometry" />
        </mxCell>
        <mxCell id="7kja0_0EhPX-HCln8B6n-165" value="No file chosen" style="fillColor=none;strokeColor=none;align=left;fontSize=14;spacing=5;" vertex="1" parent="7kja0_0EhPX-HCln8B6n-145">
          <mxGeometry x="100" y="220" width="100" height="30" as="geometry" />
        </mxCell>
        <mxCell id="7kja0_0EhPX-HCln8B6n-153" value="&lt;font color=&quot;#808080&quot;&gt;&amp;nbsp;(XX) 9 XXXX-XXXX&lt;/font&gt;" style="whiteSpace=wrap;html=1;align=left;" vertex="1" parent="7kja0_0EhPX-HCln8B6n-145">
          <mxGeometry x="50" y="140" width="280" height="20" as="geometry" />
        </mxCell>
        <mxCell id="7kja0_0EhPX-HCln8B6n-170" value="" style="sketch=0;outlineConnect=0;fontColor=#ffffff;fillColor=#647687;strokeColor=#314354;dashed=0;verticalLabelPosition=bottom;verticalAlign=top;align=center;html=1;fontSize=12;fontStyle=0;aspect=fixed;pointerEvents=1;shape=mxgraph.aws4.container_registry_image;" vertex="1" parent="7kja0_0EhPX-HCln8B6n-145">
          <mxGeometry x="10" y="260" width="120" height="120" as="geometry" />
        </mxCell>
        <mxCell id="9OnwvqXDnQ-zbljjmTwU-1" value="O arquivo upado não é uma imagem!" style="html=1;shadow=0;dashed=0;shape=mxgraph.bootstrap.rrect;rSize=5;strokeColor=#FFECBC;strokeWidth=1;fillColor=#FFF1CF;fontColor=#856110;whiteSpace=wrap;align=left;verticalAlign=middle;spacingLeft=10;" vertex="1" parent="7kja0_0EhPX-HCln8B6n-145">
          <mxGeometry x="10" y="400" width="320" height="20" as="geometry" />
        </mxCell>
        <mxCell id="7kja0_0EhPX-HCln8B6n-148" value="" style="html=1;shadow=0;dashed=0;shape=mxgraph.bootstrap.rrect;rSize=5;strokeColor=none;html=1;whiteSpace=wrap;fillColor=#ffffff;fontColor=#0085FC;" vertex="1" parent="7kja0_0EhPX-HCln8B6n-143">
          <mxGeometry x="120" y="565" width="120" height="40" as="geometry" />
        </mxCell>
        <mxCell id="7kja0_0EhPX-HCln8B6n-149" value="1" style="html=1;shadow=0;dashed=0;shape=mxgraph.bootstrap.leftButton;rSize=5;perimeter=none;whiteSpace=wrap;resizeHeight=1;fillColor=none;strokeColor=#DEE2E6;fontSize=16;labelBackgroundColor=none;fontColor=#0085FC;" vertex="1" parent="7kja0_0EhPX-HCln8B6n-148">
          <mxGeometry width="40" height="40" relative="1" as="geometry" />
        </mxCell>
        <mxCell id="7kja0_0EhPX-HCln8B6n-150" value="2" style="strokeColor=#DEE2E6;fillColor=#0085FC;gradientColor=inherit;fontColor=#ffffff;html=1;shadow=0;dashed=0;perimeter=none;whiteSpace=wrap;resizeHeight=1;fontSize=16;rounded=0;" vertex="1" parent="7kja0_0EhPX-HCln8B6n-148">
          <mxGeometry width="40" height="40" relative="1" as="geometry">
            <mxPoint x="40" as="offset" />
          </mxGeometry>
        </mxCell>
        <mxCell id="7kja0_0EhPX-HCln8B6n-151" value="3" style="strokeColor=#DEE2E6;fillColor=inherit;gradientColor=inherit;fontColor=inherit;html=1;shadow=0;dashed=0;shape=mxgraph.bootstrap.rightButton;rSize=5;perimeter=none;whiteSpace=wrap;resizeHeight=1;fontSize=16;" vertex="1" parent="7kja0_0EhPX-HCln8B6n-148">
          <mxGeometry x="1" width="40" height="40" relative="1" as="geometry">
            <mxPoint x="-40" as="offset" />
          </mxGeometry>
        </mxCell>
        <mxCell id="7kja0_0EhPX-HCln8B6n-173" value="" style="group" vertex="1" connectable="0" parent="1">
          <mxGeometry x="827" width="360" height="640" as="geometry" />
        </mxCell>
        <mxCell id="7kja0_0EhPX-HCln8B6n-174" value="" style="shape=rect;fillColor=#333333;strokeColor=none;" vertex="1" parent="7kja0_0EhPX-HCln8B6n-173">
          <mxGeometry width="360" height="640" as="geometry" />
        </mxCell>
        <mxCell id="7kja0_0EhPX-HCln8B6n-175" value="" style="strokeWidth=1;shadow=0;dashed=0;align=center;html=1;shape=mxgraph.mockup.containers.browserWindow;rSize=0;strokeColor=#666666;strokeColor2=#008cff;strokeColor3=#c4c4c4;mainText=,;recursiveResize=0;" vertex="1" parent="7kja0_0EhPX-HCln8B6n-173">
          <mxGeometry x="10" y="10" width="340" height="620" as="geometry" />
        </mxCell>
        <mxCell id="7kja0_0EhPX-HCln8B6n-176" value="Sign-up" style="strokeWidth=1;shadow=0;dashed=0;align=center;html=1;shape=mxgraph.mockup.containers.anchor;fontSize=17;fontColor=#666666;align=left;whiteSpace=wrap;" vertex="1" parent="7kja0_0EhPX-HCln8B6n-175">
          <mxGeometry x="60" y="12" width="110" height="26" as="geometry" />
        </mxCell>
        <mxCell id="7kja0_0EhPX-HCln8B6n-177" value="projeto-lumos/sign-up" style="strokeWidth=1;shadow=0;dashed=0;align=center;html=1;shape=mxgraph.mockup.containers.anchor;rSize=0;fontSize=17;fontColor=#666666;align=left;" vertex="1" parent="7kja0_0EhPX-HCln8B6n-175">
          <mxGeometry x="130" y="60" width="190" height="26" as="geometry" />
        </mxCell>
        <mxCell id="7kja0_0EhPX-HCln8B6n-171" value="Você precisa aceitar as diretrizes da comunidade!" style="html=1;shadow=0;dashed=0;shape=mxgraph.bootstrap.rrect;rSize=5;strokeColor=#F4C5CB;strokeWidth=1;fillColor=#F8D6DA;fontColor=#711623;whiteSpace=wrap;align=left;verticalAlign=middle;spacingLeft=10;" vertex="1" parent="7kja0_0EhPX-HCln8B6n-175">
          <mxGeometry x="15" y="450" width="315" height="20" as="geometry" />
        </mxCell>
        <UserObject label="Cadastrar" link="data:page/id,QVXukRcYZEAoWH2xmHe6" id="7kja0_0EhPX-HCln8B6n-19">
          <mxCell style="html=1;shadow=0;dashed=0;shape=mxgraph.bootstrap.rrect;rSize=5;strokeColor=none;strokeWidth=1;fillColor=#0085FC;fontColor=#FFFFFF;whiteSpace=wrap;align=center;verticalAlign=middle;spacingLeft=0;fontStyle=0;fontSize=16;spacing=5;" vertex="1" parent="7kja0_0EhPX-HCln8B6n-175">
            <mxGeometry x="15" y="490" width="315" height="40" as="geometry" />
          </mxCell>
        </UserObject>
        <mxCell id="9OnwvqXDnQ-zbljjmTwU-2" value="Aceito as diretrizes da comunidade." style="html=1;shadow=0;dashed=0;shape=mxgraph.bootstrap.switch;strokeColor=#ADB6BD;strokeWidth=1;fillColor=#ffffff;fontColor=#212529;onStrokeColor=#ffffff;onFillColor=#0085FC;align=left;verticalAlign=middle;spacingLeft=10;labelPosition=right;verticalLabelPosition=middle;buttonState=0;sketch=0;" vertex="1" parent="7kja0_0EhPX-HCln8B6n-175">
          <mxGeometry x="15" y="430" width="20" height="10" as="geometry" />
        </mxCell>
        <mxCell id="7kja0_0EhPX-HCln8B6n-178" value="" style="html=1;shadow=0;dashed=0;shape=mxgraph.bootstrap.rrect;rSize=5;strokeColor=none;html=1;whiteSpace=wrap;fillColor=#ffffff;fontColor=#0085FC;" vertex="1" parent="7kja0_0EhPX-HCln8B6n-173">
          <mxGeometry x="120" y="565" width="120" height="40" as="geometry" />
        </mxCell>
        <mxCell id="7kja0_0EhPX-HCln8B6n-179" value="1" style="html=1;shadow=0;dashed=0;shape=mxgraph.bootstrap.leftButton;rSize=5;perimeter=none;whiteSpace=wrap;resizeHeight=1;fillColor=none;strokeColor=#DEE2E6;fontSize=16;labelBackgroundColor=none;fontColor=#0085FC;perimeterSpacing=1;labelBorderColor=none;" vertex="1" parent="7kja0_0EhPX-HCln8B6n-178">
          <mxGeometry width="40" height="40" relative="1" as="geometry" />
        </mxCell>
        <mxCell id="7kja0_0EhPX-HCln8B6n-180" value="2" style="strokeColor=#DEE2E6;fillColor=none;gradientColor=inherit;fontColor=#0085FC;html=1;shadow=0;dashed=0;perimeter=none;whiteSpace=wrap;resizeHeight=1;fontSize=16;rounded=0;labelBackgroundColor=none;" vertex="1" parent="7kja0_0EhPX-HCln8B6n-178">
          <mxGeometry width="40" height="40" relative="1" as="geometry">
            <mxPoint x="40" as="offset" />
          </mxGeometry>
        </mxCell>
        <mxCell id="7kja0_0EhPX-HCln8B6n-181" value="3" style="strokeColor=#DEE2E6;fillColor=#0085FC;gradientColor=inherit;fontColor=#ffffff;html=1;shadow=0;dashed=0;shape=mxgraph.bootstrap.rightButton;rSize=5;perimeter=none;whiteSpace=wrap;resizeHeight=1;fontSize=16;rounded=0;" vertex="1" parent="7kja0_0EhPX-HCln8B6n-178">
          <mxGeometry x="1" width="40" height="40" relative="1" as="geometry">
            <mxPoint x="-40" as="offset" />
          </mxGeometry>
        </mxCell>
      </root>
    </mxGraphModel>
  </diagram>
  <diagram id="Tg6_4VK22YlRRJGs_QcX" name="Tela de reset de senha">
    <mxGraphModel dx="1420" dy="780" grid="1" gridSize="10" guides="1" tooltips="1" connect="1" arrows="1" fold="1" page="1" pageScale="1" pageWidth="827" pageHeight="1169" math="0" shadow="0">
      <root>
        <mxCell id="0" />
        <mxCell id="1" parent="0" />
      </root>
    </mxGraphModel>
  </diagram>
  <diagram id="yGj1j8o3CC4hvEhsWFOq" name="Tela home">
    <mxGraphModel dx="1420" dy="780" grid="1" gridSize="10" guides="1" tooltips="1" connect="1" arrows="1" fold="1" page="1" pageScale="1" pageWidth="827" pageHeight="1169" math="0" shadow="0">
      <root>
        <mxCell id="0" />
        <mxCell id="1" parent="0" />
      </root>
    </mxGraphModel>
  </diagram>
</mxfile>
